<?xml version="1.0" standalone="no"?>
<!DOCTYPE svg PUBLIC "-//W3C//DTD SVG 20010904//EN"
 "http://www.w3.org/TR/2001/REC-SVG-20010904/DTD/svg10.dtd">
<svg version="1.0" xmlns="http://www.w3.org/2000/svg"
 width="48.000000pt" height="48.000000pt" viewBox="0 0 48.000000 48.000000"
 preserveAspectRatio="xMidYMid meet">

<g transform="translate(0.000000,48.000000) scale(0.100000,-0.100000)"
fill="#000000" stroke="none">
<path d="M388 453 c-8 -10 -39 -54 -68 -98 -29 -44 -73 -108 -98 -143 l-45
-64 -51 51 c-29 28 -56 51 -62 51 -6 0 -23 -14 -39 -30 l-29 -30 89 -90 c49
-50 97 -90 106 -90 16 0 289 386 289 408 0 9 -60 52 -72 52 -3 0 -12 -8 -20
-17z"/>
</g>
</svg>
