<?xml version="1.0" standalone="no"?>
<!DOCTYPE svg PUBLIC "-//W3C//DTD SVG 20010904//EN"
 "http://www.w3.org/TR/2001/REC-SVG-20010904/DTD/svg10.dtd">
<svg version="1.0" xmlns="http://www.w3.org/2000/svg"
 width="1662.000000pt" height="1790.000000pt" viewBox="0 0 1662.000000 1790.000000"
 preserveAspectRatio="xMidYMid meet">

<g transform="translate(0.000000,1790.000000) scale(0.100000,-0.100000)"
fill="#000000" stroke="none">
<path d="M14040 17853 c-18 -14 -73 -81 -123 -147 -298 -394 -581 -631 -857
-718 -65 -20 -95 -23 -225 -23 l-150 1 -150 52 c-197 69 -251 84 -284 77 -14
-3 -79 -53 -145 -110 -350 -309 -644 -466 -903 -482 -159 -10 -287 28 -458
137 -155 98 -197 120 -235 120 -46 0 -78 -21 -178 -114 -153 -145 -253 -280
-421 -571 -103 -178 -203 -315 -283 -391 -185 -175 -433 -294 -821 -394 -178
-45 -207 -42 -522 52 -341 102 -389 112 -555 112 -161 1 -205 -8 -312 -60 -71
-36 -168 -119 -211 -181 -15 -22 -44 -98 -66 -173 -183 -625 -416 -1096 -665
-1346 -86 -86 -114 -107 -189 -143 -124 -61 -198 -65 -357 -23 -254 68 -518
173 -637 252 -318 214 -242 459 217 700 97 51 107 59 129 103 48 97 28 288
-37 350 -40 38 -63 44 -212 51 -231 12 -346 46 -436 128 -103 94 -136 191
-139 404 -2 169 -11 199 -85 293 -60 75 -121 105 -174 85 -21 -8 -222 -241
-324 -376 -159 -210 -272 -394 -437 -713 -165 -318 -218 -395 -333 -486 -101
-81 -118 -84 -331 -63 -272 26 -363 11 -377 -62 -16 -88 25 -274 91 -404 30
-61 40 -70 117 -117 199 -123 329 -279 373 -448 19 -75 19 -211 0 -339 -19
-125 -19 -189 0 -225 8 -16 45 -53 82 -82 184 -145 199 -226 64 -352 -75 -70
-139 -97 -231 -97 -65 0 -85 5 -145 34 -39 18 -119 70 -178 115 -60 44 -115
81 -123 81 -8 0 -22 -12 -30 -27 -196 -356 -308 -509 -476 -652 -381 -325
-824 -305 -1388 64 -370 241 -381 246 -426 204 -73 -68 -49 -193 79 -412 30
-50 64 -111 75 -133 l21 -41 -21 -54 c-60 -158 -92 -314 -86 -427 4 -87 21
-129 59 -151 24 -13 32 -13 79 2 67 22 229 22 340 1 230 -43 404 -149 462
-282 26 -59 22 -174 -10 -244 -74 -167 -256 -350 -557 -560 -142 -99 -165
-132 -173 -253 -4 -63 -1 -80 21 -128 33 -73 90 -116 306 -236 188 -103 271
-170 311 -247 21 -42 25 -62 25 -144 0 -91 -2 -99 -42 -182 l-42 -88 31 -67
c77 -170 147 -415 185 -648 25 -154 25 -520 0 -655 -91 -488 -342 -802 -753
-939 -180 -60 -424 -89 -628 -74 l-119 9 -15 -36 c-25 -60 -12 -187 32 -300
110 -286 430 -735 764 -1073 64 -65 126 -124 137 -130 12 -7 73 -12 150 -12
149 -1 207 -15 331 -76 88 -43 235 -159 301 -237 172 -203 295 -452 359 -727
26 -108 28 -138 29 -300 0 -157 -3 -190 -23 -258 -70 -244 -215 -386 -445
-436 -108 -24 -122 -32 -142 -86 -26 -67 -1 -156 53 -191 15 -9 31 -23 35 -30
13 -22 72 -32 312 -54 462 -40 677 -67 940 -115 628 -114 1139 -321 1515 -613
47 -36 142 -123 211 -192 173 -172 208 -246 229 -490 6 -63 15 -161 20 -217
11 -117 30 -173 72 -208 42 -35 101 -33 245 11 225 68 397 143 670 295 271
151 369 189 490 189 103 0 223 -55 513 -234 96 -60 211 -128 255 -152 167 -90
339 -136 520 -138 119 -1 186 21 259 85 67 59 99 111 175 283 72 162 115 235
188 316 123 137 334 238 616 295 l119 24 167 -55 c294 -97 528 -227 698 -387
107 -101 179 -197 263 -352 98 -179 130 -204 230 -174 51 15 119 -4 331 -92
231 -96 273 -109 354 -116 65 -5 73 -3 98 18 25 22 30 39 52 170 69 410 205
751 408 1024 80 108 251 279 365 365 271 204 536 316 1073 453 229 59 287 78
333 110 l29 20 -6 111 c-8 138 -26 262 -73 484 l-37 174 18 111 c54 347 92
473 177 588 91 124 221 250 293 285 56 27 70 29 225 35 216 9 292 35 455 156
174 129 225 206 250 370 18 122 37 177 84 250 83 129 228 262 396 363 155 93
271 185 443 349 83 78 177 163 209 188 142 111 354 240 606 369 93 47 138 75
141 89 10 38 19 262 12 297 -3 19 -25 59 -47 89 -81 106 -135 252 -183 492
-32 158 -86 496 -86 535 0 18 -37 33 -63 27 -21 -6 -26 -17 -42 -103 -103
-551 -297 -984 -520 -1165 -189 -153 -392 -204 -763 -194 -199 5 -204 6 -250
33 -208 122 -401 311 -477 469 -56 115 -67 184 -63 387 3 166 2 178 -18 205
-14 18 -32 29 -52 31 -57 6 -105 91 -138 246 -19 88 -21 246 -5 305 8 26 27
59 47 79 30 30 39 34 72 29 20 -3 45 -8 55 -12 17 -7 18 -4 10 31 -4 22 -8 84
-8 139 0 89 3 106 28 157 48 97 141 158 242 158 l42 0 17 113 c50 325 117 509
245 672 54 69 70 112 71 195 0 90 -27 250 -47 272 -14 15 -33 18 -127 18 -96
0 -116 3 -151 23 -54 30 -94 110 -108 216 -9 71 -8 82 9 112 28 48 92 83 222
123 62 19 132 46 156 60 84 49 96 131 37 249 -42 85 -97 155 -258 329 -293
317 -373 470 -373 709 0 293 167 609 407 769 95 64 204 104 393 147 85 19 183
49 218 65 106 50 147 134 140 282 l-3 69 -62 13 c-80 16 -140 43 -187 84 -48
43 -66 79 -66 133 0 41 6 51 73 128 217 249 454 384 732 419 120 15 111 5 119
128 12 183 27 237 110 391 43 80 60 189 54 348 -3 87 -8 117 -21 130 -18 19
-9 25 -207 -132 -185 -147 -268 -219 -391 -341 l-115 -115 -47 27 c-64 35
-176 53 -339 54 l-138 0 -18 -37 c-52 -106 -60 -239 -23 -413 29 -134 23 -183
-22 -206 -102 -52 -144 -143 -168 -369 -14 -135 -24 -155 -82 -155 -48 -1
-120 -16 -261 -55 -124 -34 -215 -32 -289 5 -54 27 -156 129 -201 201 -16 26
-38 52 -49 59 -33 20 -125 23 -252 7 -320 -41 -506 -28 -703 52 l-53 21 -14
-33 c-7 -18 -21 -83 -29 -144 -27 -195 -72 -275 -200 -361 -40 -27 -113 -63
-161 -81 -88 -32 -88 -32 -139 -15 -178 57 -271 168 -390 464 -50 124 -81 177
-110 186 -17 6 -18 15 -13 113 2 62 14 142 27 192 15 56 20 97 16 115 -10 39
-95 120 -182 172 -93 55 -142 58 -188 8 -54 -56 -71 -135 -71 -317 l0 -157
-65 -4 c-82 -6 -141 -34 -304 -143 -174 -117 -202 -120 -318 -33 -97 71 -203
123 -293 143 -70 16 -92 16 -211 5 -213 -21 -293 -1 -382 95 -101 107 -174
278 -213 494 -18 99 -20 143 -16 301 8 299 43 395 207 559 318 318 599 439
900 387 68 -12 148 -38 280 -90 313 -125 341 -128 461 -39 122 90 204 126 331
143 135 19 319 -17 507 -97 l85 -36 15 24 c57 86 153 149 261 169 31 6 156 10
290 8 338 -4 352 3 444 212 105 235 246 473 382 641 38 48 129 151 203 230
152 163 200 224 259 324 126 216 196 554 218 1061 5 116 3 171 -5 197 -21 62
-69 74 -121 30z m-6045 -5303 c391 -26 841 -101 1221 -205 816 -224 1525 -586
2119 -1083 116 -98 460 -441 557 -557 645 -773 1041 -1733 1182 -2870 92 -743
68 -1293 -85 -1925 -40 -164 -153 -501 -224 -669 -343 -813 -910 -1526 -1665
-2095 -1145 -862 -2661 -1288 -3945 -1110 -542 76 -1082 244 -1610 504 -249
122 -398 208 -635 365 -334 221 -571 415 -856 699 -828 829 -1316 1832 -1449
2981 -51 441 -37 1177 31 1635 113 767 432 1525 907 2160 773 1031 1986 1810
3252 2089 411 90 724 111 1200 81z"/>
<path d="M16433 9445 c-60 -26 -120 -74 -150 -119 -16 -24 -51 -104 -78 -177
-31 -85 -65 -158 -96 -204 -57 -85 -60 -109 -29 -231 47 -183 176 -384 247
-384 56 0 80 67 113 305 47 341 78 479 136 604 52 110 47 161 -19 201 -37 23
-79 25 -124 5z"/>
</g>
</svg>
